# xmcd
#
# Track frame offsets: 
#        150
#        20493
#        38644
#        53218
#        68434
#        89846
#        105775
#        119313
#        137645
#        151760
#        169061
#        183083
#        200438
#        214391
#
# Disc length: 3082 seconds
#
# Revision: 3
# Processed by: cddbd v1.5.2PL0 Copyright (c) Steve Scherf et al.
# Submitted via: ExactAudioCopy v0.95a4
#
DISCID=b40c080e
DTITLE=Trace Adkins - Greatest Hits Collection, Volume I
DYEAR=1900
DGENRE=Country
TTITLE0=Then They Do
TTITLE1=(This Ain't) No Thinkin' Thing
TTITLE2=The Rest Of Mine
TTITLE3=Chrome
TTITLE4=I'm Tryin'
TTITLE5=There's A Girl In Texas
TTITLE6=Every Light In The House
TTITLE7=Don't Lie
TTITLE8=I Left Something Turned On At Home
TTITLE9=Big Time
TTITLE10=Lonely Won't Leave Me Alone
TTITLE11=Help Me Understand
TTITLE12=More
TTITLE13=Welcome To Hell
EXTD=
EXTT0=Previously Unreleased
EXTT1=
EXTT2=
EXTT3=
EXTT4=
EXTT5=
EXTT6=
EXTT7=
EXTT8=
EXTT9=
EXTT10=
EXTT11=
EXTT12=
EXTT13=
PLAYORDER=
